<mxfile host="app.diagrams.net" modified="2021-02-15T03:17:29.417Z" agent="5.0 (Windows NT 10.0; Win64; x64) AppleWebKit/537.36 (KHTML, like Gecko) Chrome/88.0.4324.152 Safari/537.36" etag="1fQWHWydVvNgkefcsFy2" version="14.3.1" type="github">
  <diagram id="9v1e7nA_9eBDx_07Och-" name="Backfill">
    <mxGraphModel dx="2727" dy="1126" grid="1" gridSize="10" guides="1" tooltips="1" connect="1" arrows="1" fold="1" page="1" pageScale="1" pageWidth="850" pageHeight="1100" math="0" shadow="0">
      <root>
        <mxCell id="0" />
        <mxCell id="1" parent="0" />
        <mxCell id="zOqTyJgDZ62oZVEmTMjh-43" value="" style="edgeStyle=orthogonalEdgeStyle;rounded=0;orthogonalLoop=1;jettySize=auto;html=1;" edge="1" parent="1" source="zOqTyJgDZ62oZVEmTMjh-1" target="zOqTyJgDZ62oZVEmTMjh-15">
          <mxGeometry relative="1" as="geometry" />
        </mxCell>
        <mxCell id="zOqTyJgDZ62oZVEmTMjh-1" value="node ./backfill-sidechain-cache.js" style="strokeWidth=2;html=1;shape=mxgraph.flowchart.start_1;whiteSpace=wrap;" vertex="1" parent="1">
          <mxGeometry x="-535" y="130" width="210" height="60" as="geometry" />
        </mxCell>
        <mxCell id="zOqTyJgDZ62oZVEmTMjh-2" value="&lt;b&gt;&lt;font style=&quot;font-size: 17px&quot;&gt;Start&lt;/font&gt;&lt;/b&gt;" style="text;html=1;strokeColor=none;fillColor=none;align=center;verticalAlign=middle;whiteSpace=wrap;rounded=0;" vertex="1" parent="1">
          <mxGeometry x="-450" y="100" width="40" height="20" as="geometry" />
        </mxCell>
        <mxCell id="zOqTyJgDZ62oZVEmTMjh-3" value="&lt;b&gt;&lt;font style=&quot;font-size: 19px&quot;&gt;Sidechain Caching - Fresh Backfill&lt;/font&gt;&lt;/b&gt;" style="text;html=1;strokeColor=none;fillColor=none;align=center;verticalAlign=middle;whiteSpace=wrap;rounded=0;" vertex="1" parent="1">
          <mxGeometry x="-830" y="20" width="360" height="20" as="geometry" />
        </mxCell>
        <mxCell id="zOqTyJgDZ62oZVEmTMjh-6" value="DynamoDB" style="strokeWidth=2;html=1;shape=mxgraph.flowchart.database;whiteSpace=wrap;" vertex="1" parent="1">
          <mxGeometry x="-500" y="760" width="140" height="100" as="geometry" />
        </mxCell>
        <mxCell id="zOqTyJgDZ62oZVEmTMjh-19" value="" style="edgeStyle=orthogonalEdgeStyle;rounded=0;orthogonalLoop=1;jettySize=auto;html=1;" edge="1" parent="1" source="zOqTyJgDZ62oZVEmTMjh-13" target="zOqTyJgDZ62oZVEmTMjh-17">
          <mxGeometry relative="1" as="geometry" />
        </mxCell>
        <mxCell id="zOqTyJgDZ62oZVEmTMjh-13" value="web3.getPastEvents({fromBlock: 0, toBlock: latest})" style="rounded=1;whiteSpace=wrap;html=1;absoluteArcSize=1;arcSize=14;strokeWidth=2;" vertex="1" parent="1">
          <mxGeometry x="-590" y="310" width="320" height="100" as="geometry" />
        </mxCell>
        <mxCell id="zOqTyJgDZ62oZVEmTMjh-18" value="" style="edgeStyle=orthogonalEdgeStyle;rounded=0;orthogonalLoop=1;jettySize=auto;html=1;" edge="1" parent="1" source="zOqTyJgDZ62oZVEmTMjh-15" target="zOqTyJgDZ62oZVEmTMjh-13">
          <mxGeometry relative="1" as="geometry" />
        </mxCell>
        <mxCell id="zOqTyJgDZ62oZVEmTMjh-33" style="edgeStyle=orthogonalEdgeStyle;rounded=0;orthogonalLoop=1;jettySize=auto;html=1;entryX=0;entryY=0.5;entryDx=0;entryDy=0;entryPerimeter=0;" edge="1" parent="1" source="zOqTyJgDZ62oZVEmTMjh-15" target="zOqTyJgDZ62oZVEmTMjh-31">
          <mxGeometry relative="1" as="geometry">
            <Array as="points">
              <mxPoint x="-210" y="250" />
              <mxPoint x="-210" y="1010" />
            </Array>
          </mxGeometry>
        </mxCell>
        <mxCell id="zOqTyJgDZ62oZVEmTMjh-15" value="FOR EACH NETWORK" style="strokeWidth=2;html=1;shape=mxgraph.flowchart.loop_limit;whiteSpace=wrap;" vertex="1" parent="1">
          <mxGeometry x="-480" y="220" width="100" height="60" as="geometry" />
        </mxCell>
        <mxCell id="zOqTyJgDZ62oZVEmTMjh-21" value="" style="edgeStyle=orthogonalEdgeStyle;rounded=0;orthogonalLoop=1;jettySize=auto;html=1;" edge="1" parent="1" source="zOqTyJgDZ62oZVEmTMjh-17" target="zOqTyJgDZ62oZVEmTMjh-20">
          <mxGeometry relative="1" as="geometry" />
        </mxCell>
        <mxCell id="zOqTyJgDZ62oZVEmTMjh-17" value="events" style="shape=parallelogram;html=1;strokeWidth=2;perimeter=parallelogramPerimeter;whiteSpace=wrap;rounded=1;arcSize=12;size=0.23;" vertex="1" parent="1">
          <mxGeometry x="-480" y="440" width="100" height="60" as="geometry" />
        </mxCell>
        <mxCell id="zOqTyJgDZ62oZVEmTMjh-23" value="" style="edgeStyle=orthogonalEdgeStyle;rounded=0;orthogonalLoop=1;jettySize=auto;html=1;" edge="1" parent="1" source="zOqTyJgDZ62oZVEmTMjh-20" target="zOqTyJgDZ62oZVEmTMjh-22">
          <mxGeometry relative="1" as="geometry" />
        </mxCell>
        <mxCell id="zOqTyJgDZ62oZVEmTMjh-27" style="edgeStyle=orthogonalEdgeStyle;rounded=0;orthogonalLoop=1;jettySize=auto;html=1;entryX=0;entryY=0.5;entryDx=0;entryDy=0;entryPerimeter=0;" edge="1" parent="1" source="zOqTyJgDZ62oZVEmTMjh-20" target="zOqTyJgDZ62oZVEmTMjh-24">
          <mxGeometry relative="1" as="geometry">
            <Array as="points">
              <mxPoint x="-320" y="560" />
              <mxPoint x="-320" y="930" />
            </Array>
          </mxGeometry>
        </mxCell>
        <mxCell id="zOqTyJgDZ62oZVEmTMjh-20" value="FOR EACH EVENT" style="strokeWidth=2;html=1;shape=mxgraph.flowchart.loop_limit;whiteSpace=wrap;" vertex="1" parent="1">
          <mxGeometry x="-480" y="530" width="100" height="60" as="geometry" />
        </mxCell>
        <mxCell id="zOqTyJgDZ62oZVEmTMjh-28" value="" style="edgeStyle=orthogonalEdgeStyle;rounded=0;orthogonalLoop=1;jettySize=auto;html=1;" edge="1" parent="1" source="zOqTyJgDZ62oZVEmTMjh-29" target="zOqTyJgDZ62oZVEmTMjh-6">
          <mxGeometry relative="1" as="geometry" />
        </mxCell>
        <mxCell id="zOqTyJgDZ62oZVEmTMjh-22" value="Fetch Metadata" style="rounded=1;whiteSpace=wrap;html=1;absoluteArcSize=1;arcSize=14;strokeWidth=2;" vertex="1" parent="1">
          <mxGeometry x="-480" y="610" width="100" height="60" as="geometry" />
        </mxCell>
        <mxCell id="zOqTyJgDZ62oZVEmTMjh-26" style="edgeStyle=orthogonalEdgeStyle;rounded=0;orthogonalLoop=1;jettySize=auto;html=1;entryX=0;entryY=0.5;entryDx=0;entryDy=0;entryPerimeter=0;" edge="1" parent="1" source="zOqTyJgDZ62oZVEmTMjh-24" target="zOqTyJgDZ62oZVEmTMjh-20">
          <mxGeometry relative="1" as="geometry">
            <Array as="points">
              <mxPoint x="-540" y="930" />
              <mxPoint x="-540" y="560" />
            </Array>
          </mxGeometry>
        </mxCell>
        <mxCell id="zOqTyJgDZ62oZVEmTMjh-24" value="END LOOP" style="strokeWidth=2;html=1;shape=mxgraph.flowchart.loop_limit;whiteSpace=wrap;direction=west;" vertex="1" parent="1">
          <mxGeometry x="-475" y="900" width="90" height="50" as="geometry" />
        </mxCell>
        <mxCell id="zOqTyJgDZ62oZVEmTMjh-29" value="NFT" style="text;html=1;strokeColor=none;fillColor=none;align=center;verticalAlign=middle;whiteSpace=wrap;rounded=0;" vertex="1" parent="1">
          <mxGeometry x="-450" y="710" width="40" height="20" as="geometry" />
        </mxCell>
        <mxCell id="zOqTyJgDZ62oZVEmTMjh-30" value="" style="edgeStyle=orthogonalEdgeStyle;rounded=0;orthogonalLoop=1;jettySize=auto;html=1;" edge="1" parent="1" source="zOqTyJgDZ62oZVEmTMjh-22" target="zOqTyJgDZ62oZVEmTMjh-29">
          <mxGeometry relative="1" as="geometry">
            <mxPoint x="-430" y="670" as="sourcePoint" />
            <mxPoint x="-430" y="760" as="targetPoint" />
          </mxGeometry>
        </mxCell>
        <mxCell id="zOqTyJgDZ62oZVEmTMjh-32" style="edgeStyle=orthogonalEdgeStyle;rounded=0;orthogonalLoop=1;jettySize=auto;html=1;entryX=0;entryY=0.5;entryDx=0;entryDy=0;entryPerimeter=0;" edge="1" parent="1" source="zOqTyJgDZ62oZVEmTMjh-31" target="zOqTyJgDZ62oZVEmTMjh-15">
          <mxGeometry relative="1" as="geometry">
            <Array as="points">
              <mxPoint x="-660" y="1010" />
              <mxPoint x="-660" y="250" />
            </Array>
          </mxGeometry>
        </mxCell>
        <mxCell id="zOqTyJgDZ62oZVEmTMjh-31" value="END LOOP" style="strokeWidth=2;html=1;shape=mxgraph.flowchart.loop_limit;whiteSpace=wrap;direction=west;" vertex="1" parent="1">
          <mxGeometry x="-480" y="980" width="100" height="60" as="geometry" />
        </mxCell>
        <mxCell id="zOqTyJgDZ62oZVEmTMjh-44" value="What / Where&amp;nbsp;is the&lt;br&gt;&quot;Metadata&quot;?&lt;br&gt;Let&#39;s document this&lt;br&gt;&amp;nbsp;and establish a schema." style="ellipse;shape=cloud;whiteSpace=wrap;html=1;" vertex="1" parent="1">
          <mxGeometry x="-370" y="565" width="180" height="145" as="geometry" />
        </mxCell>
      </root>
    </mxGraphModel>
  </diagram>
</mxfile>
